<svg width="267" height="86" viewBox="0 0 267 86" fill="none" xmlns="http://www.w3.org/2000/svg">
<g clip-path="url(#clip0_402_10)">
<g filter="url(#filter0_d_402_10)">
<path d="M72.2576 5.35241C73.6771 5.35241 75.0385 5.91632 76.0423 6.92009C77.0461 7.92386 77.61 9.28527 77.61 10.7048V74.9337C77.61 76.3533 77.0461 77.7147 76.0423 78.7184C75.0385 79.7222 73.6771 80.2861 72.2576 80.2861H13.3811C11.9615 80.2861 10.6001 79.7222 9.59636 78.7184C8.59259 77.7147 8.02868 76.3533 8.02868 74.9337V10.7048C8.02868 9.28527 8.59259 7.92386 9.59636 6.92009C10.6001 5.91632 11.9615 5.35241 13.3811 5.35241H72.2576ZM13.3811 0C10.542 0 7.81918 1.12783 5.81164 3.13537C3.8041 5.14291 2.67627 7.86572 2.67627 10.7048V74.9337C2.67627 77.7728 3.8041 80.4956 5.81164 82.5032C7.81918 84.5107 10.542 85.6385 13.3811 85.6385H72.2576C75.0967 85.6385 77.8195 84.5107 79.827 82.5032C81.8346 80.4956 82.9624 77.7728 82.9624 74.9337V10.7048C82.9624 7.86572 81.8346 5.14291 79.827 3.13537C77.8195 1.12783 75.0967 0 72.2576 0L13.3811 0Z" fill="white"/>
</g>
<path d="M34.7905 16.0572C34.7905 14.6377 35.3544 13.2763 36.3582 12.2725C37.3619 11.2687 38.7234 10.7048 40.1429 10.7048H45.4953C46.9149 10.7048 48.2763 11.2687 49.28 12.2725C50.2838 13.2763 50.8477 14.6377 50.8477 16.0572V32.1145C50.8477 33.534 50.2838 34.8954 49.28 35.8992C48.2763 36.903 46.9149 37.4669 45.4953 37.4669H40.1429C38.7234 37.4669 37.3619 36.903 36.3582 35.8992C35.3544 34.8954 34.7905 33.534 34.7905 32.1145V16.0572ZM13.3809 16.0572C13.3809 14.6377 13.9448 13.2763 14.9485 12.2725C15.9523 11.2687 17.3137 10.7048 18.7333 10.7048H24.0857C25.5052 10.7048 26.8666 11.2687 27.8704 12.2725C28.8742 13.2763 29.4381 14.6377 29.4381 16.0572V53.5241C29.4381 54.9436 28.8742 56.3051 27.8704 57.3088C26.8666 58.3126 25.5052 58.8765 24.0857 58.8765H18.7333C17.3137 58.8765 15.9523 58.3126 14.9485 57.3088C13.9448 56.3051 13.3809 54.9436 13.3809 53.5241V16.0572ZM56.2001 16.0572C56.2001 14.6377 56.764 13.2763 57.7678 12.2725C58.7716 11.2687 60.133 10.7048 61.5525 10.7048H66.9049C68.3245 10.7048 69.6859 11.2687 70.6897 12.2725C71.6934 13.2763 72.2573 14.6377 72.2573 16.0572V69.5813C72.2573 71.0009 71.6934 72.3623 70.6897 73.366C69.6859 74.3698 68.3245 74.9337 66.9049 74.9337H61.5525C60.133 74.9337 58.7716 74.3698 57.7678 73.366C56.764 72.3623 56.2001 71.0009 56.2001 69.5813V16.0572Z" fill="white"/>
</g>
<path d="M124.21 54L119.56 47.1V54H113.68V31.8H119.56V43.77L124.21 37.17H131.26L124.63 45.63L131.38 54H124.21ZM132.144 45.57C132.144 43.83 132.454 42.31 133.074 41.01C133.714 39.71 134.574 38.71 135.654 38.01C136.754 37.31 137.974 36.96 139.314 36.96C140.474 36.96 141.474 37.19 142.314 37.65C143.154 38.11 143.804 38.73 144.264 39.51V37.17H150.144V54H144.264V51.66C143.804 52.44 143.144 53.06 142.284 53.52C141.444 53.98 140.454 54.21 139.314 54.21C137.974 54.21 136.754 53.86 135.654 53.16C134.574 52.46 133.714 51.46 133.074 50.16C132.454 48.84 132.144 47.31 132.144 45.57ZM144.264 45.57C144.264 44.49 143.964 43.64 143.364 43.02C142.784 42.4 142.064 42.09 141.204 42.09C140.324 42.09 139.594 42.4 139.014 43.02C138.434 43.62 138.144 44.47 138.144 45.57C138.144 46.65 138.434 47.51 139.014 48.15C139.594 48.77 140.324 49.08 141.204 49.08C142.064 49.08 142.784 48.77 143.364 48.15C143.964 47.53 144.264 46.67 144.264 45.57ZM164.504 37.02C166.444 37.02 167.984 37.67 169.124 38.97C170.264 40.25 170.834 41.99 170.834 44.19V54H164.954V44.97C164.954 44.01 164.704 43.26 164.204 42.72C163.704 42.16 163.034 41.88 162.194 41.88C161.314 41.88 160.624 42.16 160.124 42.72C159.624 43.26 159.374 44.01 159.374 44.97V54H153.494V37.17H159.374V39.57C159.894 38.81 160.594 38.2 161.474 37.74C162.354 37.26 163.364 37.02 164.504 37.02ZM179.941 39.51C180.401 38.71 181.051 38.09 181.891 37.65C182.731 37.19 183.721 36.96 184.861 36.96C186.201 36.96 187.411 37.31 188.491 38.01C189.591 38.71 190.451 39.71 191.071 41.01C191.711 42.31 192.031 43.83 192.031 45.57C192.031 47.31 191.711 48.84 191.071 50.16C190.451 51.46 189.591 52.46 188.491 53.16C187.411 53.86 186.201 54.21 184.861 54.21C183.721 54.21 182.731 53.99 181.891 53.55C181.051 53.09 180.401 52.46 179.941 51.66V54H174.061V31.8H179.941V39.51ZM186.061 45.57C186.061 44.47 185.761 43.62 185.161 43.02C184.581 42.4 183.861 42.09 183.001 42.09C182.141 42.09 181.411 42.4 180.811 43.02C180.231 43.64 179.941 44.49 179.941 45.57C179.941 46.67 180.231 47.53 180.811 48.15C181.411 48.77 182.141 49.08 183.001 49.08C183.861 49.08 184.581 48.77 185.161 48.15C185.761 47.51 186.061 46.65 186.061 45.57ZM202.281 54.21C200.601 54.21 199.091 53.86 197.751 53.16C196.431 52.46 195.391 51.46 194.631 50.16C193.871 48.86 193.491 47.33 193.491 45.57C193.491 43.83 193.871 42.31 194.631 41.01C195.411 39.71 196.461 38.71 197.781 38.01C199.121 37.31 200.631 36.96 202.311 36.96C203.991 36.96 205.491 37.31 206.811 38.01C208.151 38.71 209.201 39.71 209.961 41.01C210.741 42.31 211.131 43.83 211.131 45.57C211.131 47.31 210.741 48.84 209.961 50.16C209.201 51.46 208.151 52.46 206.811 53.16C205.471 53.86 203.961 54.21 202.281 54.21ZM202.281 49.11C203.101 49.11 203.781 48.81 204.321 48.21C204.881 47.59 205.161 46.71 205.161 45.57C205.161 44.43 204.881 43.56 204.321 42.96C203.781 42.36 203.111 42.06 202.311 42.06C201.511 42.06 200.841 42.36 200.301 42.96C199.761 43.56 199.491 44.43 199.491 45.57C199.491 46.73 199.751 47.61 200.271 48.21C200.791 48.81 201.461 49.11 202.281 49.11ZM212.564 45.57C212.564 43.83 212.874 42.31 213.494 41.01C214.134 39.71 214.994 38.71 216.074 38.01C217.174 37.31 218.394 36.96 219.734 36.96C220.894 36.96 221.894 37.19 222.734 37.65C223.574 38.11 224.224 38.73 224.684 39.51V37.17H230.564V54H224.684V51.66C224.224 52.44 223.564 53.06 222.704 53.52C221.864 53.98 220.874 54.21 219.734 54.21C218.394 54.21 217.174 53.86 216.074 53.16C214.994 52.46 214.134 51.46 213.494 50.16C212.874 48.84 212.564 47.31 212.564 45.57ZM224.684 45.57C224.684 44.49 224.384 43.64 223.784 43.02C223.204 42.4 222.484 42.09 221.624 42.09C220.744 42.09 220.014 42.4 219.434 43.02C218.854 43.62 218.564 44.47 218.564 45.57C218.564 46.65 218.854 47.51 219.434 48.15C220.014 48.77 220.744 49.08 221.624 49.08C222.484 49.08 223.204 48.77 223.784 48.15C224.384 47.53 224.684 46.67 224.684 45.57ZM239.794 40.14C240.454 39.18 241.254 38.42 242.194 37.86C243.134 37.3 244.144 37.02 245.224 37.02V43.29H243.574C242.294 43.29 241.344 43.54 240.724 44.04C240.104 44.54 239.794 45.41 239.794 46.65V54H233.914V37.17H239.794V40.14ZM246.372 45.57C246.372 43.83 246.682 42.31 247.302 41.01C247.942 39.71 248.812 38.71 249.912 38.01C251.012 37.31 252.232 36.96 253.572 36.96C254.652 36.96 255.612 37.19 256.452 37.65C257.312 38.09 257.982 38.7 258.462 39.48V31.8H264.372V54H258.462V51.66C258.002 52.44 257.352 53.06 256.512 53.52C255.672 53.98 254.682 54.21 253.542 54.21C252.202 54.21 250.982 53.86 249.882 53.16C248.802 52.46 247.942 51.46 247.302 50.16C246.682 48.84 246.372 47.31 246.372 45.57ZM258.492 45.57C258.492 44.49 258.192 43.64 257.592 43.02C257.012 42.4 256.292 42.09 255.432 42.09C254.552 42.09 253.822 42.4 253.242 43.02C252.662 43.62 252.372 44.47 252.372 45.57C252.372 46.65 252.662 47.51 253.242 48.15C253.822 48.77 254.552 49.08 255.432 49.08C256.292 49.08 257.012 48.77 257.592 48.15C258.192 47.53 258.492 46.67 258.492 45.57Z" fill="white"/>
<defs>
<filter id="filter0_d_402_10" x="-7.32373" y="-6" width="100.286" height="105.639" filterUnits="userSpaceOnUse" color-interpolation-filters="sRGB">
<feFlood flood-opacity="0" result="BackgroundImageFix"/>
<feColorMatrix in="SourceAlpha" type="matrix" values="0 0 0 0 0 0 0 0 0 0 0 0 0 0 0 0 0 0 127 0" result="hardAlpha"/>
<feOffset dy="4"/>
<feGaussianBlur stdDeviation="5"/>
<feComposite in2="hardAlpha" operator="out"/>
<feColorMatrix type="matrix" values="0 0 0 0 0.180208 0 0 0 0 0.396458 0 0 0 0 0.720833 0 0 0 0.25 0"/>
<feBlend mode="normal" in2="BackgroundImageFix" result="effect1_dropShadow_402_10"/>
<feBlend mode="normal" in="SourceGraphic" in2="effect1_dropShadow_402_10" result="shape"/>
</filter>
<clipPath id="clip0_402_10">
<rect width="85.6385" height="85.6385" fill="white"/>
</clipPath>
</defs>
</svg>
